HIERARCHY
ROOT Hips
{
	OFFSET	0.00	0.00	0.00
	CHANNELS 6 Xposition Yposition Zposition Zrotation Xrotation Yrotation
	JOINT LeftUpLeg
	{
		OFFSET	 0.126116	-0.014019	-0.065224
		CHANNELS 3 Zrotation Xrotation Yrotation
		JOINT LeftLeg
		{
			OFFSET	 0.000000	 0.000000	 0.569914
			CHANNELS 3 Zrotation Xrotation Yrotation
			JOINT LeftFoot
			{
				OFFSET	 0.000000	 0.000000	 0.544423
				CHANNELS 3 Zrotation Xrotation Yrotation
				JOINT LeftToeBase
				{
					OFFSET	 0.000000	 0.000000	 0.207117
					CHANNELS 3 Zrotation Xrotation Yrotation
					End Site
					{
						OFFSET	 0.000000	 0.000000	 0.207117
					}
				}
			}
		}
	}
	JOINT RightUpLeg
	{
		OFFSET	-0.124023	-0.008373	-0.065224
		CHANNELS 3 Zrotation Xrotation Yrotation
		JOINT RightLeg
		{
			OFFSET	 0.000000	 0.000000	 0.570047
			CHANNELS 3 Zrotation Xrotation Yrotation
			JOINT RightFoot
			{
				OFFSET	 0.000000	 0.000000	 0.544354
				CHANNELS 3 Zrotation Xrotation Yrotation
				JOINT RightToeBase
				{
					OFFSET	 0.000000	 0.000000	 0.207540
					CHANNELS 3 Zrotation Xrotation Yrotation
					End Site
					{
						OFFSET	 0.000000	 0.000000	 0.207540
					}
				}
			}
		}
	}
	JOINT Spine
	{
		OFFSET	 0.000184	-0.007763	 0.117403
		CHANNELS 3 Zrotation Xrotation Yrotation
		JOINT Spine1
		{
			OFFSET	 0.000000	 0.000000	 0.137269
			CHANNELS 3 Zrotation Xrotation Yrotation
			JOINT Spine2
			{
				OFFSET	 0.000000	 0.000000	 0.156879
				CHANNELS 3 Zrotation Xrotation Yrotation
				JOINT LeftShoulder
				{
					OFFSET	 0.080501	-0.002496	 0.160144
					CHANNELS 3 Zrotation Xrotation Yrotation
					JOINT LeftArm
					{
						OFFSET	 0.000000	 0.000000	 0.164363
						CHANNELS 3 Zrotation Xrotation Yrotation
						JOINT LeftForeArm
						{
							OFFSET	 0.000000	 0.000000	 0.364576
							CHANNELS 3 Zrotation Xrotation Yrotation
							JOINT LeftHand
							{
								OFFSET	 0.000000	 0.000000	 0.360812
								CHANNELS 3 Zrotation Xrotation Yrotation
								JOINT LeftHandIndex1
								{
									OFFSET	 0.000000	 0.000000	 0.086006
									CHANNELS 3 Zrotation Xrotation Yrotation
									JOINT LeftHandIndex2
									{
										OFFSET	 0.000000	 0.000000	 0.047237
										CHANNELS 3 Zrotation Xrotation Yrotation
										JOINT LeftHandIndex3
										{
											OFFSET	-0.004284	-0.000551	 0.038165
											CHANNELS 3 Zrotation Xrotation Yrotation
											End Site
											{
												OFFSET	-0.004284	-0.000551	 0.038165
											}
										}
									}
								}
							}
						}
					}
				}
				JOINT Neck
				{
					OFFSET	 0.000000	 0.000000	 0.176489
					CHANNELS 3 Zrotation Xrotation Yrotation
					JOINT Head
					{
						OFFSET	 0.000000	-0.001747	 0.077940
						CHANNELS 3 Zrotation Xrotation Yrotation
						End Site
						{
							OFFSET	 0.000000	-0.001747	 0.077940
						}
					}
				}
				JOINT RightShoulder
				{
					OFFSET	-0.080363	 0.000306	 0.159706
					CHANNELS 3 Zrotation Xrotation Yrotation
					JOINT RightArm
					{
						OFFSET	 0.000000	 0.000000	 0.164196
						CHANNELS 3 Zrotation Xrotation Yrotation
						JOINT RightForeArm
						{
							OFFSET	 0.000000	 0.000000	 0.365611
							CHANNELS 3 Zrotation Xrotation Yrotation
							JOINT RightHand
							{
								OFFSET	 0.000000	 0.000000	 0.360648
								CHANNELS 3 Zrotation Xrotation Yrotation
								JOINT RightHandIndex1
								{
									OFFSET	 0.000000	 0.000000	 0.069977
									CHANNELS 3 Zrotation Xrotation Yrotation
									JOINT RightHandIndex2
									{
										OFFSET	 0.000000	 0.000000	 0.052305
										CHANNELS 3 Zrotation Xrotation Yrotation
										JOINT RightHandIndex3
										{
											OFFSET	 0.009002	-0.000782	 0.042196
											CHANNELS 3 Zrotation Xrotation Yrotation
											End Site
											{
												OFFSET	 0.009002	-0.000782	 0.042196
											}
										}
									}
								}
							}
						}
					}
				}
			}
		}
	}
}
MOTION
Frames:    6
Frame Time: 0.03333334
-0.399720	 0.192870	 1.238608	-175.944200	 12.327140	 14.144060	 34.623660	-15.986940	 172.179600	-8.778516	-44.099830	-6.529567	 141.315600	 76.869460	-153.491900	-2.385833	 28.452760	 0.000004	-28.673520	-40.695000	 151.219800	 5.590174	-50.406210	 3.136505	-8.715800	 73.561420	 27.459410	 2.384659	 28.388700	-0.000001	 90.113590	-24.255120	 17.417190	 53.052420	 21.281960	 6.099849	-18.650930	-6.046624	-21.743310	-91.776150	 78.527360	 180.000000	 1.952226	 44.154550	-12.736710	-2.472842	-3.743592	-97.862260	 4.177373	-51.634660	-0.717270	-4.130319	 21.525730	 0.991547	-5.167930	 0.731704	 3.519349	-1.378229	 35.397820	-2.634230	-18.324100	 7.186971	 7.646661	-26.234890	-21.443560	-16.466660	 89.782140	 78.203870	 180.000000	 62.394760	 2.934153	-5.159681	-17.996350	-7.278437	 31.444860	-73.087960	-4.271946	-108.312900	 5.716227	 19.173190	-3.685159	 5.027444	 0.246877	-9.377972	-2.350882	 35.473990	 5.254307
-0.406588	 0.204523	 1.241572	-174.917900	 11.981030	 12.901670	 35.819200	-13.302810	 172.859200	-8.551591	-41.490230	-6.065969	 138.520300	 77.379350	-150.277700	-2.385833	 28.452760	 0.000004	-27.354680	-40.174760	 153.805700	 6.003317	-50.301790	 3.450377	-7.485999	 74.236540	 25.363710	 2.384659	 28.388700	-0.000001	 87.267820	-22.571270	 17.275160	 50.133350	 20.196600	 8.008490	-17.911400	-5.450518	-21.462750	-91.776180	 78.527350	-180.000000	-0.674167	 41.138160	-6.177084	-2.737367	-4.914077	-99.603160	 5.633950	-54.711770	 0.217974	-4.130319	 21.525730	 0.991547	-5.167930	 0.731704	 3.519349	-1.378229	 35.397820	-2.634230	-17.682660	 7.803033	 7.707568	-26.025030	-22.211460	-16.866860	 89.782170	 78.203920	 179.999900	 79.401110	 0.582641	-4.337815	-16.296320	-8.853865	 41.649170	-97.398430	 7.449775	-93.651050	 5.716227	 19.173190	-3.685159	 5.027444	 0.246877	-9.377972	-2.350882	 35.473990	 5.254307
-0.411525	 0.215495	 1.244660	-173.888400	 11.482340	 11.167870	 36.641030	-9.873466	 173.559100	-8.698560	-38.586780	-5.806310	 137.995500	 77.214570	-149.004300	-2.385833	 28.452760	 0.000004	-24.912990	-39.962220	 157.192000	 5.945301	-50.643860	 3.422405	-3.801400	 75.129650	 21.081470	 2.384659	 28.388700	-0.000001	 84.582320	-20.358300	 17.415620	 47.419830	 19.357800	 9.534935	-17.288420	-5.021715	-21.014100	-91.776180	 78.527380	 180.000000	-2.930660	 38.487630	-0.071431	-3.136253	-5.931424	-102.175100	 7.153222	-58.167800	 1.359799	-4.130319	 21.525730	 0.991547	-5.167930	 0.731704	 3.519349	-1.378229	 35.397820	-2.634230	-17.301740	 7.674489	 8.457099	-25.566990	-21.786300	-17.830400	 89.782110	 78.203890	 180.000000	 77.695490	-1.547548	 17.905090	-19.570470	-0.232095	 2.747350	-103.839300	-9.211188	-96.173290	 5.716227	 19.173190	-3.685159	 5.027444	 0.246877	-9.377972	-2.350882	 35.473990	 5.254307
-0.414860	 0.223084	 1.246819	-172.792400	 10.679290	 10.382070	 37.294400	-7.387832	 173.229000	-8.828721	-36.233010	-5.582752	 137.769700	 77.274230	-148.342200	-2.385833	 28.452760	 0.000004	-23.253640	-39.225970	 159.301700	 5.909118	-50.707760	 3.397463	-0.871770	 76.104160	 17.369780	 2.384659	 28.388700	-0.000001	 81.666060	-18.844060	 16.685760	 45.313000	 18.370220	 11.228920	-16.653250	-4.653739	-20.766760	-91.776220	 78.527420	-180.000000	-4.944113	 37.481670	 4.633865	-3.456181	-6.483281	-104.086400	 8.512843	-61.402360	 2.406565	-4.130319	 21.525730	 0.991547	-5.167930	 0.731704	 3.519349	-1.378229	 35.397820	-2.634230	-16.735450	 7.676758	 8.198891	-25.043590	-22.242490	-16.770380	 89.782110	 78.203900	 180.000000	 73.107090	-4.971420	 18.068200	-20.306100	-0.310532	 3.393539	-105.981900	-9.185869	-94.501180	 5.716227	 19.173190	-3.685159	 5.027444	 0.246877	-9.377972	-2.350882	 35.473990	 5.254307
-0.417159	 0.228744	 1.248597	-171.893900	 10.054580	 9.905695	 37.962390	-5.537702	 172.858300	-8.989234	-34.075380	-5.385293	 134.408700	 77.514880	-144.735700	-2.385833	 28.452760	 0.000004	-21.758290	-38.838890	 160.802200	 5.642893	-50.727650	 3.191874	 3.044343	 76.675900	 12.749460	 2.384659	 28.388700	-0.000001	 79.165280	-18.008210	 16.209380	 43.709610	 17.205340	 12.731100	-15.930700	-3.773068	-20.697920	-91.776220	 78.527420	-180.000000	-6.958293	 37.113210	 8.220841	-3.723887	-6.791074	-105.662500	 9.814797	-64.307150	 3.408656	-4.130319	 21.525730	 0.991547	-5.167930	 0.731704	 3.519349	-1.378229	 35.397820	-2.634230	-16.250860	 7.722718	 8.362247	-24.671170	-22.278120	-16.834650	 89.782120	 78.203850	 180.000000	 68.933460	-7.449720	 17.289810	-21.067900	-0.394030	 3.937369	-107.030900	-9.239049	-93.625560	 5.716227	 19.173190	-3.685159	 5.027444	 0.246877	-9.377972	-2.350882	 35.473990	 5.254307
-0.418321	 0.232626	 1.250096	-171.107200	 9.513147	 9.523008	 38.351850	-4.219680	 172.546400	-9.342521	-32.505820	-5.360198	 130.391200	 77.725800	-140.440400	-2.385833	 28.452760	 0.000004	-20.467850	-38.403240	 161.972100	 5.341272	-50.495390	 2.948113	 6.619595	 76.904790	 8.617880	 2.384659	 28.388700	-0.000001	 76.900980	-17.195910	 15.727410	 42.382520	 16.034380	 14.048000	-15.179430	-2.846227	-20.568290	-91.776160	 78.527350	 180.000000	-8.882262	 37.052270	 10.717810	-3.918498	-6.932513	-106.771600	 10.975210	-67.015820	 4.316154	-4.130319	 21.525730	 0.991547	-5.167930	 0.731704	 3.519349	-1.378229	 35.397820	-2.634230	-15.760700	 8.217050	 8.607724	-24.369160	-22.509430	-17.416520	 89.782100	 78.203890	-180.000000	 64.370970	-9.216713	 16.363440	-21.630930	-0.485213	 4.453094	-107.369300	-8.602921	-93.325310	 5.716227	 19.173190	-3.685159	 5.027444	 0.246877	-9.377972	-2.350882	 35.473990	 5.254307
